<svg id="レイヤー_1" data-name="レイヤー 1" xmlns="http://www.w3.org/2000/svg" viewBox="0 0 492 498.04"><defs><style>.cls-1{fill:#4d75b0;}.cls-1,.cls-2,.cls-3{stroke:#231916;stroke-miterlimit:10;}.cls-1,.cls-2{stroke-width:0.75px;}.cls-2{fill:#68a5d0;}.cls-3{fill:#f2f2f2;}</style></defs><title>c4d</title><path class="cls-1" d="M346.56,30.47A186.26,186.26,0,0,1,464.91,142.36s-14.78.44-24.66,7.84c-24.91,18.64-25.67,54.64-28.14,80-5.93,61-27.51,120.21-52.49,156.91-9.1,13.37-35.26,51.79-83.89,69.82-65.13,24.15-144.5,2-192-50.7-9.31-10.34-40.68-47.81-44-103.18-4.26-70.29,38.15-139.47,107.9-178.65a391.31,391.31,0,0,1,89.92-33.66c53.13-12.59,95.82-10.44,107.49-35.66C349.25,46,348,36.55,346.56,30.47Z" transform="translate(-4.58 -2.97)"/><ellipse class="cls-2" cx="288" cy="200.09" rx="184.14" ry="181"/><path class="cls-3" d="M347.66,29.6S345.65,3,258.25,3.48,118.1,28.59,72.39,77.82s-67.31,97-67.31,171.81c0,0,2,114,69.83,177.3s134.48,73.58,175,73.58,128.41-16.82,190.7-91.16S495.85,252,495.85,252c-.09-4.49-2.57-104.53-33.68-110.18-8.68-1.58-17,4.67-20.82,7.51-24.9,18.64-25.67,54.64-28.14,80-5.93,61-27.51,120.22-52.49,156.91-9.1,13.37-35.25,51.79-83.88,69.82-65.14,24.16-144.51,2-192-50.7-9.3-10.34-40.68-47.81-44-103.17C36.58,231.89,79,162.71,148.75,123.53a391,391,0,0,1,89.91-33.65c53.13-12.6,95.82-10.45,107.5-35.67C350.35,45.15,349.11,35.67,347.66,29.6Z" transform="translate(-4.58 -2.97)"/></svg>