<svg id="レイヤー_1" data-name="レイヤー 1" xmlns="http://www.w3.org/2000/svg" viewBox="0 0 333.55 278.35"><defs><style>.cls-1{fill:#293337;}</style></defs><title>oblogo</title><path class="cls-1" d="M105.72,218c5.74-52.39,42.5-103.61,88.22-118.25l-.2,6.4c-44.79,16.23-77.1,66.33-82.16,112.49-8.1,74,39.46,144.09,121.52,153.08,79.5,8.71,139.07-51.13,146.9-122.56,7.14-65.21-27.46-125-83.88-131.17-30-3.29-64.33,11.86-68.46,49.6-2.81,25.64,12.05,52.48,43.92,56,12.45,1.37,25.92.25,39.34-7.18l2.78,5.12C301,229,284.86,231,270.94,229.45c-34.81-3.81-52.35-33.17-49.14-62.47,4.41-40.3,40.89-58.55,75-54.82,61.91,6.78,96.28,72.09,89.1,137.67-8.11,74-70.2,136.53-153.36,127.42C147.51,367.94,97.25,295.32,105.72,218Z" transform="translate(-104.8 -99.78)"/><path class="cls-1" d="M177.79,279.14c-1.33,12.09-5.37,14.32-10,13.81s-8.12-3.39-6.8-15.48,5.84-28.92,11.59-28.29C178.77,249.85,179.11,267.05,177.79,279.14Z" transform="translate(-104.8 -99.78)"/><path class="cls-1" d="M261.92,288.36c-1.32,12.08-5.36,14.31-10,13.81s-8.11-3.39-6.79-15.48,5.84-28.93,11.59-28.3C262.91,259.07,263.25,276.27,261.92,288.36Z" transform="translate(-104.8 -99.78)"/><path class="cls-1" d="M417.7,367.47A10.32,10.32,0,1,1,428,377.79,10.08,10.08,0,0,1,417.7,367.47Z" transform="translate(-104.8 -99.78)"/></svg>