<svg id="レイヤー_1" data-name="レイヤー 1" xmlns="http://www.w3.org/2000/svg" viewBox="0 0 353.14 333.21"><defs><style>.cls-1{fill:#231815;}</style></defs><title>oblogo</title><path class="cls-1" d="M105.72,218c5.74-52.39,42.5-103.61,88.22-118.25l-.2,6.4c-44.79,16.23-77.1,66.33-82.16,112.49-8.1,74,39.46,144.09,121.52,153.08,79.5,8.71,139.07-51.13,146.9-122.56,7.14-65.21-27.46-125-83.88-131.17-30-3.29-64.33,11.86-68.46,49.6-2.81,25.64,12.05,52.48,43.92,56,12.45,1.37,25.92.25,39.34-7.18l2.78,5.12C301,229,284.86,231,270.94,229.45c-34.81-3.81-52.35-33.17-49.14-62.47,4.41-40.3,40.89-58.55,75-54.82,61.91,6.78,96.28,72.09,89.1,137.67-8.11,74-70.2,136.53-153.36,127.42C147.51,367.94,97.25,295.32,105.72,218Z" transform="translate(-85.2 -99.78)"/><path class="cls-1" d="M177.79,279.14c-1.33,12.09-5.37,14.32-10,13.81s-8.12-3.39-6.8-15.48,5.84-28.92,11.59-28.29C178.77,249.85,179.11,267.05,177.79,279.14Z" transform="translate(-85.2 -99.78)"/><path class="cls-1" d="M261.92,288.36c-1.32,12.08-5.36,14.31-10,13.81s-8.11-3.39-6.79-15.48,5.84-28.93,11.59-28.3C262.91,259.07,263.25,276.27,261.92,288.36Z" transform="translate(-85.2 -99.78)"/><path class="cls-1" d="M417.7,367.47A10.32,10.32,0,1,1,428,377.79,10.08,10.08,0,0,1,417.7,367.47Z" transform="translate(-85.2 -99.78)"/><path class="cls-1" d="M118.42,415.86a16.61,16.61,0,1,1-16.61-16.52A16.34,16.34,0,0,1,118.42,415.86Zm-2.21,0a14.4,14.4,0,1,0-14.4,14.54A14.21,14.21,0,0,0,116.21,415.86Z" transform="translate(-85.2 -99.78)"/><path class="cls-1" d="M153.31,396.8v18.82a9.19,9.19,0,0,1,7.68-3.84c5.91,0,9.51,4.41,9.51,10.08s-3.65,10.46-9.6,10.46a8.54,8.54,0,0,1-7.59-4v3.51h-1.92v-35Zm15.17,25.06c0-5.38-3.55-8.26-7.58-8.26-3.85,0-7.69,2.74-7.69,8.16,0,4.9,2.69,8.74,7.64,8.74S168.48,426.66,168.48,421.86Z" transform="translate(-85.2 -99.78)"/><path class="cls-1" d="M205,396.8v35h-1.92v-35Z" transform="translate(-85.2 -99.78)"/><path class="cls-1" d="M238.08,405.68a1.73,1.73,0,1,1,1.73,1.78A1.71,1.71,0,0,1,238.08,405.68Zm2.69,6.53V431.8h-1.92V412.21Z" transform="translate(-85.2 -99.78)"/><path class="cls-1" d="M273.64,412.21l6.92,16.27,6.81-16.27h2.12L280.56,433l-9-20.79Z" transform="translate(-85.2 -99.78)"/><path class="cls-1" d="M319.48,405.68a1.73,1.73,0,1,1,1.73,1.78A1.71,1.71,0,0,1,319.48,405.68Zm2.69,6.53V431.8h-1.92V412.21Z" transform="translate(-85.2 -99.78)"/><path class="cls-1" d="M375.31,422.05A10.28,10.28,0,1,1,365,411.78,10.1,10.1,0,0,1,375.31,422.05Zm-2,0A8.26,8.26,0,1,0,365,430.5,8.21,8.21,0,0,0,373.29,422.05Z" transform="translate(-85.2 -99.78)"/><path class="cls-1" d="M407.9,412.21h1.92v3.07a6.54,6.54,0,0,1,6-3.5,6.08,6.08,0,0,1,5.42,2.73,9.41,9.41,0,0,1,1,4.95V431.8h-1.92V419.46a7.27,7.27,0,0,0-.76-3.94,4.17,4.17,0,0,0-3.84-1.92,5.14,5.14,0,0,0-4.8,2.74,10.56,10.56,0,0,0-1.06,5.28V431.8H407.9Z" transform="translate(-85.2 -99.78)"/></svg>